<svg width="24" height="24" viewBox="0 0 24 24" fill="none" xmlns="http://www.w3.org/2000/svg">
    <path d="M20.4853 3.51469C18.2188 1.24819 15.2053 0 12 0C8.79473 0 5.78123 1.24819 3.51473 3.51473C1.24823 5.78123 0 8.79469 0 12C0 15.2054 1.24819 18.2189 3.51469 20.4854C5.78119 22.7518 8.79464 24 12 24C15.2053 24 18.2188 22.7518 20.4853 20.4853C22.7518 18.2188 24 15.2053 24 12C24 8.79469 22.7518 5.78123 20.4853 3.51469ZM19.4909 19.491C17.49 21.4918 14.8297 22.5938 12 22.5938C9.17025 22.5938 6.50991 21.4918 4.50905 19.491C2.50814 17.49 1.40625 14.8298 1.40625 12C1.40625 9.17034 2.50823 6.51 4.50909 4.50909C6.51 2.50819 9.1703 1.40625 12 1.40625C14.8297 1.40625 17.49 2.50819 19.491 4.50905C23.6213 8.63958 23.6213 15.3604 19.4909 19.491Z" fill="#626775"/>
    <path d="M17.2899 16.2957L12.9943 12L17.2899 7.70433C17.5645 7.42974 17.5645 6.98457 17.2899 6.71002C17.0153 6.43543 16.5701 6.43543 16.2955 6.71002L11.9999 11.0056L7.70421 6.70997C7.42967 6.43538 6.98445 6.43538 6.70985 6.70997C6.43526 6.98457 6.43526 7.42974 6.70985 7.70433L11.0055 12L6.70985 16.2957C6.43526 16.5703 6.43526 17.0154 6.70985 17.29C6.84715 17.4273 7.0271 17.496 7.20701 17.496C7.38696 17.496 7.56692 17.4273 7.70421 17.29L11.9999 12.9944L16.2956 17.29C16.4329 17.4273 16.6128 17.496 16.7928 17.496C16.9727 17.496 17.1527 17.4273 17.2899 17.29C17.5645 17.0154 17.5645 16.5703 17.2899 16.2957Z" fill="#626775"/>
</svg>
