<svg width="180" height="46" viewBox="0 0 180 46" fill="none" xmlns="http://www.w3.org/2000/svg">
    <path d="M64.9634 12.924V24.7368C64.9634 25.9181 65.254 26.8275 65.8353 27.465C66.4165 28.1025 67.2697 28.4213 68.3947 28.4213C69.5198 28.4213 70.3823 28.1025 70.9823 27.465C71.5823 26.8275 71.8823 25.9181 71.8823 24.7368V12.924H76.6918V24.7087C76.6918 26.4713 76.3168 27.9619 75.5668 29.1807C74.8168 30.3995 73.8042 31.3183 72.5292 31.937C71.2729 32.5558 69.8666 32.8652 68.3103 32.8652C66.7541 32.8652 65.3571 32.5652 64.1196 31.9652C62.9008 31.3464 61.9352 30.4276 61.2226 29.2088C60.5101 27.9713 60.1539 26.4713 60.1539 24.7087V12.924H64.9634Z" fill="#001F69"/>
    <path d="M84.8786 19.1961C85.3474 18.4648 85.9943 17.8741 86.8193 17.4241C87.6443 16.9741 88.61 16.7491 89.7163 16.7491C91.01 16.7491 92.182 17.0772 93.232 17.7335C94.282 18.3898 95.107 19.3273 95.7071 20.5461C96.3258 21.7649 96.6352 23.1805 96.6352 24.7931C96.6352 26.4056 96.3258 27.8307 95.7071 29.0682C95.107 30.287 94.282 31.2339 93.232 31.9089C92.182 32.5652 91.01 32.8933 89.7163 32.8933C88.6287 32.8933 87.6631 32.6683 86.8193 32.2183C85.9943 31.7683 85.3474 31.187 84.8786 30.4745V40.1498H80.0691V16.9741H84.8786V19.1961ZM91.7413 24.7931C91.7413 23.593 91.4038 22.6555 90.7288 21.9805C90.0725 21.2867 89.2569 20.9399 88.2818 20.9399C87.3256 20.9399 86.5099 21.2867 85.8349 21.9805C85.1786 22.6743 84.8505 23.6212 84.8505 24.8212C84.8505 26.0212 85.1786 26.9681 85.8349 27.6619C86.5099 28.3557 87.3256 28.7026 88.2818 28.7026C89.2381 28.7026 90.0538 28.3557 90.7288 27.6619C91.4038 26.9494 91.7413 25.9931 91.7413 24.7931Z" fill="#001F69"/>
    <path d="M103.968 19.1961C104.437 18.4648 105.084 17.8741 105.909 17.4241C106.734 16.9741 107.699 16.7491 108.806 16.7491C110.099 16.7491 111.271 17.0772 112.321 17.7335C113.371 18.3898 114.196 19.3273 114.796 20.5461C115.415 21.7649 115.724 23.1805 115.724 24.7931C115.724 26.4056 115.415 27.8307 114.796 29.0682C114.196 30.287 113.371 31.2339 112.321 31.9089C111.271 32.5652 110.099 32.8933 108.806 32.8933C107.718 32.8933 106.752 32.6683 105.909 32.2183C105.084 31.7683 104.437 31.187 103.968 30.4745V40.1498H99.1584V16.9741H103.968V19.1961ZM110.831 24.7931C110.831 23.593 110.493 22.6555 109.818 21.9805C109.162 21.2867 108.346 20.9399 107.371 20.9399C106.415 20.9399 105.599 21.2867 104.924 21.9805C104.268 22.6743 103.94 23.6212 103.94 24.8212C103.94 26.0212 104.268 26.9681 104.924 27.6619C105.599 28.3557 106.415 28.7026 107.371 28.7026C108.327 28.7026 109.143 28.3557 109.818 27.6619C110.493 26.9494 110.831 25.9931 110.831 24.7931Z" fill="#001F69"/>
    <path d="M126.995 28.5901V32.6683H124.548C122.804 32.6683 121.445 32.2464 120.47 31.4026C119.495 30.5401 119.007 29.1432 119.007 27.2119V20.968H117.095V16.9741H119.007V13.149H123.817V16.9741H126.967V20.968H123.817V27.2682C123.817 27.7369 123.929 28.0744 124.154 28.2807C124.379 28.4869 124.754 28.5901 125.279 28.5901H126.995Z" fill="#001F69"/>
    <path d="M128.717 24.7931C128.717 23.1805 129.017 21.7649 129.618 20.5461C130.236 19.3273 131.071 18.3898 132.121 17.7335C133.171 17.0772 134.343 16.7491 135.636 16.7491C136.743 16.7491 137.708 16.9741 138.533 17.4241C139.377 17.8741 140.024 18.4648 140.474 19.1961V16.9741H145.284V32.6683H140.474V30.4464C140.005 31.1776 139.349 31.7683 138.505 32.2183C137.68 32.6683 136.715 32.8933 135.608 32.8933C134.333 32.8933 133.171 32.5652 132.121 31.9089C131.071 31.2339 130.236 30.287 129.618 29.0682C129.017 27.8307 128.717 26.4056 128.717 24.7931ZM140.474 24.8212C140.474 23.6212 140.137 22.6743 139.462 21.9805C138.805 21.2867 137.999 20.9399 137.043 20.9399C136.086 20.9399 135.271 21.2867 134.596 21.9805C133.94 22.6555 133.611 23.593 133.611 24.7931C133.611 25.9931 133.94 26.9494 134.596 27.6619C135.271 28.3557 136.086 28.7026 137.043 28.7026C137.999 28.7026 138.805 28.3557 139.462 27.6619C140.137 26.9681 140.474 26.0212 140.474 24.8212Z" fill="#001F69"/>
    <path d="M155.148 32.8933C153.779 32.8933 152.56 32.6589 151.491 32.1902C150.422 31.7214 149.579 31.0839 148.96 30.2776C148.341 29.4526 147.994 28.5338 147.919 27.5213H152.673C152.729 28.065 152.982 28.5057 153.432 28.8432C153.882 29.1807 154.435 29.3495 155.091 29.3495C155.691 29.3495 156.151 29.237 156.469 29.0119C156.807 28.7682 156.976 28.4588 156.976 28.0838C156.976 27.6338 156.741 27.3057 156.273 27.0994C155.804 26.8744 155.044 26.6306 153.994 26.3681C152.869 26.1056 151.932 25.8337 151.182 25.5525C150.432 25.2525 149.785 24.7931 149.241 24.1743C148.697 23.5368 148.426 22.6836 148.426 21.6149C148.426 20.7148 148.669 19.8992 149.157 19.1679C149.663 18.4179 150.394 17.8273 151.351 17.396C152.326 16.9647 153.479 16.7491 154.81 16.7491C156.779 16.7491 158.326 17.2366 159.451 18.2117C160.595 19.1867 161.251 20.4805 161.42 22.093H156.976C156.901 21.5492 156.657 21.118 156.244 20.7992C155.851 20.4805 155.326 20.3211 154.669 20.3211C154.107 20.3211 153.676 20.4336 153.376 20.6586C153.076 20.8648 152.926 21.1555 152.926 21.5305C152.926 21.9805 153.16 22.318 153.629 22.543C154.116 22.768 154.866 22.993 155.879 23.218C157.041 23.518 157.988 23.8181 158.72 24.1181C159.451 24.3993 160.088 24.8681 160.632 25.5244C161.195 26.1619 161.485 27.0244 161.504 28.1119C161.504 29.0307 161.242 29.8557 160.716 30.587C160.21 31.2995 159.47 31.862 158.495 32.2745C157.538 32.6871 156.423 32.8933 155.148 32.8933Z" fill="#001F69"/>
    <path d="M174.037 32.6683L169.256 26.0869V32.6683H164.446V11.8552H169.256V23.3587L174.009 16.9741H179.944L173.419 24.8493L180 32.6683H174.037Z" fill="#001F69"/>
    <rect x="0.485016" y="0.58728" width="44.8255" height="44.8255" rx="16" fill="#001F69"/>
    <rect x="11.1208" y="21.1143" width="14.4696" height="5.05468" transform="rotate(45 11.1208 21.1143)" fill="#FFCD28"/>
    <rect x="14.4426" y="31.0784" width="28.3583" height="5.05468" transform="rotate(-45 14.4426 31.0784)" fill="#FFCD28"/>
</svg>
