<svg width="18" height="18" viewBox="0 0 18 18" fill="none" xmlns="http://www.w3.org/2000/svg">
    <path d="M6.74996 9.74988C7.16469 9.74988 7.49991 10.0859 7.49991 10.4998V13.4999C7.49991 13.9131 7.83595 14.2499 8.25 14.2499H10.5V2.99993C10.5 2.35943 10.908 1.78719 11.5214 1.57419L11.7435 1.4999H8.25C7.83595 1.4999 7.49991 1.83663 7.49991 2.24998V4.49997C7.49991 4.91387 7.16469 5.24992 6.74996 5.24992C6.33523 5.24992 6.00001 4.91387 6.00001 4.49997V2.24998C6.00001 1.0095 7.00951 0 8.25 0H16.3124C16.341 0 16.3648 0.0127715 16.3926 0.0164794C16.4287 0.0134582 16.4632 0 16.4998 0C17.3271 0 17.9999 0.672633 17.9999 1.4999V14.9998C17.9999 15.6403 17.5919 16.2125 16.9784 16.4255L12.4649 17.9301C12.3119 17.9773 12.1597 17.9999 11.9999 17.9999C11.1726 17.9999 10.5 17.3271 10.5 16.4998V15.7499H8.25C7.00951 15.7499 6.00001 14.7404 6.00001 13.4999V10.4998C6.00001 10.0859 6.33523 9.74988 6.74996 9.74988Z" fill="white"/>
    <path d="M0.219923 6.96988L3.21999 3.96995C3.43436 3.75545 3.75695 3.6909 4.03737 3.80708C4.31711 3.9234 4.50017 4.19709 4.50017 4.50018V6.75016H7.5001C7.91414 6.75016 8.25018 7.08606 8.25018 7.50011C8.25018 7.91415 7.91414 8.25006 7.5001 8.25006H4.50017V10.5C4.50017 10.8031 4.31711 11.0768 4.03737 11.1931C3.75695 11.3093 3.43436 11.2448 3.21999 11.0304L0.219923 8.03033C-0.0732718 7.73714 -0.0732718 7.26308 0.219923 6.96988Z" fill="white"/>
</svg>
