<svg width="180" height="45" viewBox="0 0 180 45" fill="none" xmlns="http://www.w3.org/2000/svg">
    <path d="M64.4784 12.3367V24.1495C64.4784 25.3308 64.769 26.2402 65.3503 26.8777C65.9316 27.5152 66.7847 27.834 67.9097 27.834C69.0348 27.834 69.8973 27.5152 70.4973 26.8777C71.0973 26.2402 71.3973 25.3308 71.3973 24.1495V12.3367H76.2068V24.1214C76.2068 25.8839 75.8318 27.3746 75.0818 28.5934C74.3318 29.8121 73.3193 30.7309 72.0442 31.3497C70.7879 31.9685 69.3817 32.2778 67.8254 32.2778C66.2691 32.2778 64.8722 31.9778 63.6346 31.3778C62.4158 30.759 61.4502 29.8403 60.7377 28.6215C60.0251 27.384 59.6689 25.8839 59.6689 24.1214V12.3367H64.4784Z" fill="white"/>
    <path d="M84.3936 18.6087C84.8624 17.8774 85.5093 17.2868 86.3343 16.8368C87.1593 16.3868 88.125 16.1618 89.2313 16.1618C90.5251 16.1618 91.697 16.4899 92.747 17.1462C93.797 17.8024 94.622 18.74 95.2221 19.9587C95.8408 21.1775 96.1502 22.5932 96.1502 24.2057C96.1502 25.8183 95.8408 27.2433 95.2221 28.4809C94.622 29.6996 93.797 30.6465 92.747 31.3216C91.697 31.9778 90.5251 32.306 89.2313 32.306C88.1437 32.306 87.1781 32.081 86.3343 31.6309C85.5093 31.1809 84.8624 30.5997 84.3936 29.8871V39.5624H79.5841V16.3868H84.3936V18.6087ZM91.2563 24.2057C91.2563 23.0057 90.9188 22.0682 90.2438 21.3932C89.5875 20.6994 88.7719 20.3525 87.7969 20.3525C86.8406 20.3525 86.0249 20.6994 85.3499 21.3932C84.6936 22.0869 84.3655 23.0338 84.3655 24.2339C84.3655 25.4339 84.6936 26.3808 85.3499 27.0746C86.0249 27.7683 86.8406 28.1152 87.7969 28.1152C88.7531 28.1152 89.5688 27.7683 90.2438 27.0746C90.9188 26.3621 91.2563 25.4058 91.2563 24.2057Z" fill="white"/>
    <path d="M103.483 18.6087C103.952 17.8774 104.599 17.2868 105.424 16.8368C106.249 16.3868 107.214 16.1618 108.321 16.1618C109.614 16.1618 110.786 16.4899 111.836 17.1462C112.886 17.8024 113.711 18.74 114.311 19.9587C114.93 21.1775 115.239 22.5932 115.239 24.2057C115.239 25.8183 114.93 27.2433 114.311 28.4809C113.711 29.6996 112.886 30.6465 111.836 31.3216C110.786 31.9778 109.614 32.306 108.321 32.306C107.233 32.306 106.267 32.081 105.424 31.6309C104.599 31.1809 103.952 30.5997 103.483 29.8871V39.5624H98.6734V16.3868H103.483V18.6087ZM110.346 24.2057C110.346 23.0057 110.008 22.0682 109.333 21.3932C108.677 20.6994 107.861 20.3525 106.886 20.3525C105.93 20.3525 105.114 20.6994 104.439 21.3932C103.783 22.0869 103.455 23.0338 103.455 24.2339C103.455 25.4339 103.783 26.3808 104.439 27.0746C105.114 27.7683 105.93 28.1152 106.886 28.1152C107.842 28.1152 108.658 27.7683 109.333 27.0746C110.008 26.3621 110.346 25.4058 110.346 24.2057Z" fill="white"/>
    <path d="M126.51 28.0027V32.081H124.063C122.319 32.081 120.96 31.6591 119.985 30.8153C119.01 29.9528 118.522 28.5559 118.522 26.6246V20.3806H116.61V16.3868H118.522V12.5617H123.332V16.3868H126.482V20.3806H123.332V26.6808C123.332 27.1496 123.444 27.4871 123.669 27.6933C123.894 27.8996 124.269 28.0027 124.794 28.0027H126.51Z" fill="white"/>
    <path d="M128.233 24.2057C128.233 22.5932 128.533 21.1775 129.133 19.9587C129.751 18.74 130.586 17.8024 131.636 17.1462C132.686 16.4899 133.858 16.1618 135.151 16.1618C136.258 16.1618 137.223 16.3868 138.048 16.8368C138.892 17.2868 139.539 17.8774 139.989 18.6087V16.3868H144.799V32.081H139.989V29.859C139.52 30.5903 138.864 31.1809 138.02 31.6309C137.195 32.081 136.23 32.306 135.123 32.306C133.848 32.306 132.686 31.9778 131.636 31.3216C130.586 30.6465 129.751 29.6996 129.133 28.4809C128.533 27.2433 128.233 25.8183 128.233 24.2057ZM139.989 24.2339C139.989 23.0338 139.652 22.0869 138.977 21.3932C138.32 20.6994 137.514 20.3525 136.558 20.3525C135.601 20.3525 134.786 20.6994 134.111 21.3932C133.455 22.0682 133.126 23.0057 133.126 24.2057C133.126 25.4058 133.455 26.3621 134.111 27.0746C134.786 27.7683 135.601 28.1152 136.558 28.1152C137.514 28.1152 138.32 27.7683 138.977 27.0746C139.652 26.3808 139.989 25.4339 139.989 24.2339Z" fill="white"/>
    <path d="M154.663 32.306C153.294 32.306 152.075 32.0716 151.006 31.6028C149.937 31.1341 149.094 30.4965 148.475 29.6903C147.856 28.8652 147.509 27.9465 147.434 26.9339H152.188C152.244 27.4777 152.497 27.9183 152.947 28.2559C153.397 28.5934 153.95 28.7621 154.606 28.7621C155.206 28.7621 155.666 28.6496 155.985 28.4246C156.322 28.1809 156.491 27.8715 156.491 27.4965C156.491 27.0464 156.256 26.7183 155.788 26.5121C155.319 26.287 154.559 26.0433 153.509 25.7808C152.384 25.5183 151.447 25.2464 150.697 24.9651C149.947 24.6651 149.3 24.2057 148.756 23.587C148.212 22.9495 147.941 22.0963 147.941 21.0275C147.941 20.1275 148.184 19.3119 148.672 18.5806C149.178 17.8306 149.909 17.2399 150.866 16.8087C151.841 16.3774 152.994 16.1618 154.325 16.1618C156.294 16.1618 157.841 16.6493 158.966 17.6243C160.11 18.5993 160.766 19.8931 160.935 21.5057H156.491C156.416 20.9619 156.172 20.5306 155.76 20.2119C155.366 19.8931 154.841 19.7337 154.184 19.7337C153.622 19.7337 153.191 19.8462 152.891 20.0713C152.591 20.2775 152.441 20.5681 152.441 20.9432C152.441 21.3932 152.675 21.7307 153.144 21.9557C153.631 22.1807 154.381 22.4057 155.394 22.6307C156.556 22.9307 157.503 23.2307 158.235 23.5307C158.966 23.812 159.603 24.2807 160.147 24.937C160.71 25.5745 161 26.4371 161.019 27.5246C161.019 28.4434 160.757 29.2684 160.232 29.9997C159.725 30.7122 158.985 31.2747 158.01 31.6872C157.053 32.0997 155.938 32.306 154.663 32.306Z" fill="white"/>
    <path d="M173.552 32.081L168.771 25.4995V32.081H163.961V11.2679H168.771V22.7713L173.524 16.3868H179.459L172.934 24.262L179.515 32.081H173.552Z" fill="white"/>
    <rect x="3.05176e-05" width="44.8255" height="44.8255" rx="16" fill="white"/>
    <rect x="10.6358" y="20.527" width="14.4696" height="5.05468" transform="rotate(45 10.6358 20.527)" fill="#001F69"/>
    <rect x="13.9576" y="30.4911" width="28.3583" height="5.05468" transform="rotate(-45 13.9576 30.4911)" fill="#001F69"/>
</svg>
