<svg width="241" height="60" viewBox="0 0 241 60" fill="none" xmlns="http://www.w3.org/2000/svg">
    <path d="M86.5562 15.7685V31.5802C86.5562 33.1614 86.9453 34.3787 87.7233 35.232C88.5013 36.0853 89.6433 36.512 91.1492 36.512C92.6551 36.512 93.8096 36.0853 94.6127 35.232C95.4158 34.3787 95.8174 33.1614 95.8174 31.5802V15.7685H102.255V31.5426C102.255 33.9018 101.753 35.8971 100.749 37.5285C99.7453 39.1598 98.39 40.3897 96.6833 41.2179C95.0017 42.0461 93.1194 42.4602 91.0362 42.4602C88.9531 42.4602 87.0833 42.0587 85.4268 41.2555C83.7955 40.4273 82.5029 39.1975 81.5492 37.5661C80.5955 35.9097 80.1186 33.9018 80.1186 31.5426V15.7685H86.5562Z" fill="white"/>
    <path d="M113.213 24.1638C113.841 23.1849 114.707 22.3944 115.811 21.792C116.915 21.1897 118.208 20.8885 119.689 20.8885C121.42 20.8885 122.989 21.3277 124.394 22.2061C125.8 23.0846 126.904 24.3395 127.707 25.9708C128.536 27.6022 128.95 29.4971 128.95 31.6555C128.95 33.814 128.536 35.7214 127.707 37.3779C126.904 39.0093 125.8 40.2767 124.394 41.1802C122.989 42.0587 121.42 42.4979 119.689 42.4979C118.233 42.4979 116.94 42.1967 115.811 41.5944C114.707 40.992 113.841 40.214 113.213 39.2602V52.2108H106.776V21.1897H113.213V24.1638ZM122.399 31.6555C122.399 30.0493 121.947 28.7944 121.044 27.8908C120.165 26.9622 119.074 26.4979 117.769 26.4979C116.489 26.4979 115.397 26.9622 114.493 27.8908C113.615 28.8195 113.176 30.0869 113.176 31.6932C113.176 33.2995 113.615 34.5669 114.493 35.4955C115.397 36.4242 116.489 36.8885 117.769 36.8885C119.049 36.8885 120.14 36.4242 121.044 35.4955C121.947 34.5418 122.399 33.2618 122.399 31.6555Z" fill="white"/>
    <path d="M138.765 24.1638C139.392 23.1849 140.258 22.3944 141.362 21.792C142.467 21.1897 143.759 20.8885 145.24 20.8885C146.972 20.8885 148.54 21.3277 149.946 22.2061C151.351 23.0846 152.456 24.3395 153.259 25.9708C154.087 27.6022 154.501 29.4971 154.501 31.6555C154.501 33.814 154.087 35.7214 153.259 37.3779C152.456 39.0093 151.351 40.2767 149.946 41.1802C148.54 42.0587 146.972 42.4979 145.24 42.4979C143.784 42.4979 142.492 42.1967 141.362 41.5944C140.258 40.992 139.392 40.214 138.765 39.2602V52.2108H132.327V21.1897H138.765V24.1638ZM147.951 31.6555C147.951 30.0493 147.499 28.7944 146.595 27.8908C145.717 26.9622 144.625 26.4979 143.32 26.4979C142.04 26.4979 140.948 26.9622 140.045 27.8908C139.166 28.8195 138.727 30.0869 138.727 31.6932C138.727 33.2995 139.166 34.5669 140.045 35.4955C140.948 36.4242 142.04 36.8885 143.32 36.8885C144.6 36.8885 145.692 36.4242 146.595 35.4955C147.499 34.5418 147.951 33.2618 147.951 31.6555Z" fill="white"/>
    <path d="M169.587 36.7379V42.1967H166.312C163.977 42.1967 162.158 41.632 160.853 40.5026C159.548 39.3481 158.895 37.4783 158.895 34.8932V26.5355H156.335V21.1897H158.895V16.0697H165.333V21.1897H169.549V26.5355H165.333V34.9685C165.333 35.5959 165.483 36.0477 165.784 36.3238C166.086 36.5998 166.588 36.7379 167.29 36.7379H169.587Z" fill="white"/>
    <path d="M171.893 31.6555C171.893 29.4971 172.294 27.6022 173.097 25.9708C173.926 24.3395 175.043 23.0846 176.448 22.2061C177.853 21.3277 179.422 20.8885 181.154 20.8885C182.635 20.8885 183.927 21.1897 185.032 21.792C186.161 22.3944 187.027 23.1849 187.629 24.1638V21.1897H194.067V42.1967H187.629V39.2226C187.002 40.2014 186.123 40.992 184.994 41.5944C183.89 42.1967 182.597 42.4979 181.116 42.4979C179.41 42.4979 177.853 42.0587 176.448 41.1802C175.043 40.2767 173.926 39.0093 173.097 37.3779C172.294 35.7214 171.893 33.814 171.893 31.6555ZM187.629 31.6932C187.629 30.0869 187.177 28.8195 186.274 27.8908C185.395 26.9622 184.316 26.4979 183.036 26.4979C181.756 26.4979 180.664 26.9622 179.761 27.8908C178.883 28.7944 178.443 30.0493 178.443 31.6555C178.443 33.2618 178.883 34.5418 179.761 35.4955C180.664 36.4242 181.756 36.8885 183.036 36.8885C184.316 36.8885 185.395 36.4242 186.274 35.4955C187.177 34.5669 187.629 33.2995 187.629 31.6932Z" fill="white"/>
    <path d="M207.27 42.4979C205.438 42.4979 203.807 42.1842 202.376 41.5567C200.945 40.9293 199.816 40.0759 198.988 38.9967C198.159 37.8924 197.695 36.6626 197.595 35.3073H203.957C204.032 36.0351 204.371 36.6249 204.974 37.0767C205.576 37.5285 206.316 37.7544 207.195 37.7544C207.998 37.7544 208.613 37.6038 209.039 37.3026C209.491 36.9763 209.717 36.5622 209.717 36.0602C209.717 35.4579 209.403 35.0187 208.776 34.7426C208.148 34.4414 207.132 34.1151 205.727 33.7638C204.221 33.4124 202.966 33.0485 201.962 32.672C200.958 32.2704 200.092 31.6555 199.364 30.8273C198.636 29.974 198.272 28.832 198.272 27.4014C198.272 26.1967 198.599 25.1049 199.251 24.1261C199.929 23.1222 200.908 22.3316 202.188 21.7544C203.493 21.1771 205.036 20.8885 206.818 20.8885C209.454 20.8885 211.524 21.541 213.03 22.8461C214.561 24.1512 215.439 25.883 215.665 28.0414H209.717C209.617 27.3136 209.29 26.7363 208.738 26.3097C208.211 25.883 207.508 25.6697 206.63 25.6697C205.877 25.6697 205.3 25.8202 204.898 26.1214C204.497 26.3975 204.296 26.7865 204.296 27.2885C204.296 27.8908 204.61 28.3426 205.237 28.6438C205.89 28.9449 206.894 29.2461 208.249 29.5473C209.805 29.9489 211.072 30.3504 212.051 30.752C213.03 31.1285 213.883 31.7559 214.611 32.6344C215.364 33.4877 215.753 34.6422 215.778 36.0979C215.778 37.3277 215.427 38.432 214.724 39.4108C214.047 40.3646 213.055 41.1175 211.75 41.6697C210.47 42.2218 208.977 42.4979 207.27 42.4979Z" fill="white"/>
    <path d="M232.554 42.1967L226.154 33.3873V42.1967H219.717V14.3379H226.154V29.7355L232.517 21.1897H240.46L231.726 31.7308L240.536 42.1967H232.554Z" fill="white"/>
    <rect width="60" height="60" rx="16" fill="#FFCD28"/>
    <rect x="14.2363" y="27.4761" width="19.368" height="6.76582" transform="rotate(45 14.2363 27.4761)" fill="#001F69"/>
    <rect x="18.6826" y="40.8135" width="37.9583" height="6.76582" transform="rotate(-45 18.6826 40.8135)" fill="#001F69"/>
</svg>
