<svg width="380" height="533" viewBox="0 0 380 533" fill="none" xmlns="http://www.w3.org/2000/svg">
	<path d="M279.349 266.078L154.464 461.539C140.816 482.903 147.071 511.282 168.43 524.93C176.086 529.82 184.642 532.158 193.1 532.158C208.241 532.158 223.063 524.667 231.821 510.965L372.496 290.792C382.122 275.725 382.122 256.434 372.496 241.367L231.821 21.192C218.173 -0.171988 189.789 -6.42099 168.43 7.22701C147.065 20.874 140.816 49.259 154.464 70.618L279.349 266.078Z" fill="#676767"/>
	<path d="M46.305 532.157C61.446 532.157 76.269 524.666 85.026 510.964L225.7 290.791C235.327 275.724 235.327 256.433 225.7 241.366L85.026 21.192C71.373 -0.171988 42.995 -6.42099 21.636 7.22701C0.270962 20.874 -5.97804 49.259 7.66996 70.618L132.555 266.078L7.66996 461.539C-5.97804 482.903 0.276962 511.282 21.636 524.93C29.292 529.825 37.848 532.157 46.305 532.157Z" fill="#676767"/>
</svg>
