<?xml version="1.0" standalone="no"?>
<!DOCTYPE svg PUBLIC "-//W3C//DTD SVG 20010904//EN"
 "http://www.w3.org/TR/2001/REC-SVG-20010904/DTD/svg10.dtd">
<svg version="1.0" xmlns="http://www.w3.org/2000/svg"
 width="700.000000pt" height="700.000000pt" viewBox="0 0 700.000000 700.000000"
 preserveAspectRatio="xMidYMid meet">
<metadata>
Created by potrace 1.11, written by Peter Selinger 2001-2013
</metadata>
<g transform="translate(0.000000,700.000000) scale(0.100000,-0.100000)"
fill="#000000" stroke="none">
<path d="M2215 6985 c-566 -62 -1081 -310 -1485 -715 -386 -385 -620 -853
-707 -1410 -17 -106 -18 -212 -18 -1345 0 -1381 -3 -1311 75 -1622 106 -418
316 -793 620 -1107 400 -413 926 -674 1496 -741 190 -22 2387 -22 2576 0 735
86 1379 483 1793 1105 169 254 297 569 359 880 46 233 47 281 44 1555 -4 1312
-1 1243 -65 1510 -146 615 -528 1155 -1068 1508 -326 213 -724 349 -1130 387
-172 16 -2338 11 -2490 -5z m3355 -1890 l275 -275 -1578 -1578 -1577 -1577
-795 795 -795 795 272 272 c150 150 277 273 283 273 5 0 238 -228 517 -507
279 -280 511 -509 515 -510 5 -2 591 580 1303 1292 712 712 1297 1295 1300
1295 3 0 129 -124 280 -275z"/>
</g>
</svg>
